<svg width="820" height="220" viewBox="0 0 820 220" fill="none" xmlns="http://www.w3.org/2000/svg">
  <title>eduficia logo</title>
  <rect width="820" height="220" rx="36" fill="#F8FBFF"/>
  <rect x="18" y="18" width="784" height="184" rx="30" stroke="#D9E4F2" stroke-width="2"/>

  <g filter="url(#shadow)">
    <circle cx="122" cy="110" r="70" fill="#FFFFFF"/>
    <circle cx="122" cy="110" r="61" stroke="#062B5F" stroke-opacity="0.24" stroke-width="4"/>
    <path d="M82 116a40 40 0 0 1 70-26" stroke="#062B5F" stroke-width="6" stroke-linecap="round"/>
    <path d="M150 75l9 16-18-2" stroke="#2F7D3C" stroke-width="6" stroke-linecap="round" stroke-linejoin="round"/>
    <path d="M90 133c17-10 47-10 64 0" stroke="#062B5F" stroke-width="5" stroke-linecap="round"/>
    <path d="M101 96h42v31h-42V96Z" fill="#FFFFFF" stroke="#062B5F" stroke-width="5" stroke-linejoin="round"/>
    <path d="M94 98l28-22 28 22" stroke="#062B5F" stroke-width="5" stroke-linecap="round" stroke-linejoin="round"/>
    <path d="M110 104v21M122 104v21M134 104v21" stroke="#062B5F" stroke-width="5" stroke-linecap="round"/>
    <path d="M122 76V59M122 61h16v9h-16" stroke="#062B5F" stroke-width="5" stroke-linecap="round" stroke-linejoin="round"/>
    <path d="M78 148h16l6-15 8 31 8-22 6 8h17" stroke="#2F7D3C" stroke-width="5" stroke-linecap="round" stroke-linejoin="round"/>
    <path d="M145 161c-8-22 8-36 31-39-2 23-15 38-34 37" stroke="#2F7D3C" stroke-width="5" stroke-linecap="round" stroke-linejoin="round"/>
    <path d="M142 165c10-17 20-29 34-40" stroke="#2F7D3C" stroke-width="5" stroke-linecap="round"/>
  </g>

  <text x="226" y="121" fill="#062B5F" font-family="Georgia, 'Times New Roman', serif" font-size="78" font-weight="500" letter-spacing="-1">Eduficia</text>
  <path d="M238 151h68M492 151h68" stroke="#2F7D3C" stroke-width="2"/>
  <text x="322" y="158" fill="#2F7D3C" font-family="Georgia, 'Times New Roman', serif" font-size="24">Energía que educa.</text>

  <defs>
    <filter id="shadow" x="32" y="18" width="180" height="184" filterUnits="userSpaceOnUse" color-interpolation-filters="sRGB">
      <feFlood flood-opacity="0" result="BackgroundImageFix"/>
      <feColorMatrix in="SourceAlpha" type="matrix" values="0 0 0 0 0 0 0 0 0 0 0 0 0 0 0 0 0 0 127 0" result="hardAlpha"/>
      <feOffset dy="8"/>
      <feGaussianBlur stdDeviation="14"/>
      <feComposite in2="hardAlpha" operator="out"/>
      <feColorMatrix type="matrix" values="0 0 0 0 0.04 0 0 0 0 0.17 0 0 0 0 0.37 0 0 0 0.18 0"/>
      <feBlend mode="normal" in2="BackgroundImageFix" result="effect1_dropShadow"/>
      <feBlend mode="normal" in="SourceGraphic" in2="effect1_dropShadow" result="shape"/>
    </filter>
  </defs>
</svg>
